<?xml version="1.0" encoding="UTF-8" standalone="no"?>
<svg
   xmlns:dc="http://purl.org/dc/elements/1.1/"
   xmlns:cc="http://creativecommons.org/ns#"
   xmlns:rdf="http://www.w3.org/1999/02/22-rdf-syntax-ns#"
   xmlns:svg="http://www.w3.org/2000/svg"
   xmlns="http://www.w3.org/2000/svg"
   viewBox="0 0 513.58667 256.76001"
   height="256.76001"
   width="513.58667"
   xml:space="preserve"
   id="svg2"
   version="1.1"><metadata
     id="metadata8"><rdf:RDF><cc:Work
         rdf:about=""><dc:format>image/svg+xml</dc:format><dc:type
           rdf:resource="http://purl.org/dc/dcmitype/StillImage" /></cc:Work></rdf:RDF></metadata><defs
     id="defs6" /><g
     transform="matrix(1.3333333,0,0,-1.3333333,0,256.76)"
     id="g10"><g
       transform="scale(0.1)"
       id="g12"><path
         id="path14"
         style="fill:#d3d4d3;fill-opacity:1;fill-rule:nonzero;stroke:none"
         d="m 2380.58,1322.76 47.89,-119.43 1324.6,122.1 z" /><path
         id="path16"
         style="fill:#80292b;fill-opacity:1;fill-rule:nonzero;stroke:none"
         d="m 3850.88,59.4609 c -2.4,137.5981 -21.97,274.6801 -57.9,406.9101 -35.85,132.277 -87.94,259.641 -153.61,378.961 -131.64,238.858 -316.87,444.188 -531.2,606.978 -214.58,163.12 -458.38,284.46 -713.78,363.09 -255.53,78.99 -523.01,114.44 -788.65,109.94 v -2.19 c 265.43,-5.08 529.72,-50.09 779.02,-137.13 249.2,-86.65 483.74,-214.54 686.47,-380.54 202.57,-165.67 373.23,-370.09 490.01,-601.429 108.2,-213.653 168.21,-449.949 172.49,-686.949 L 0,59.4609 3792.34,0.921875 3851.92,0 l -1.04,59.4609" /><path
         id="path18"
         style="fill:#80292b;fill-opacity:1;fill-rule:nonzero;stroke:none"
         d="m 2380.58,1322.76 47.89,-114.93 1402.18,528.69 z" /><path
         id="path20"
         style="fill:#80292b;fill-opacity:1;fill-rule:nonzero;stroke:none"
         d="M 190.414,1567.66 H 0 v 59.9 h 452.305 v -59.9 H 261.93 v -476.47 h -71.516 v 476.47" /><path
         id="path22"
         style="fill:#80292b;fill-opacity:1;fill-rule:nonzero;stroke:none"
         d="m 524.98,1627.56 h 324.489 v -59.9 H 596.492 V 1404.03 H 804.773 V 1344.2 H 596.492 v -193.1 h 252.977 v -59.91 H 524.98 v 536.37" /><path
         id="path24"
         style="fill:#80292b;fill-opacity:1;fill-rule:nonzero;stroke:none"
         d="m 910.504,1359.34 c 0,173.45 130.506,279.79 285.136,279.79 67.95,0 141.25,-22.34 185.94,-56.26 v -74.24 c -43.78,39.37 -102.77,70.67 -185.94,70.67 -123.33,0 -210.933,-85.81 -210.933,-219.96 0,-133.2 87.603,-219.89 210.933,-219.89 83.17,0 142.16,31.3 185.94,70.6 v -74.17 c -44.69,-33.99 -117.99,-56.34 -185.94,-56.34 -154.63,0 -285.136,106.42 -285.136,279.8" /><path
         id="path26"
         style="fill:#6f7277;fill-opacity:1;fill-rule:nonzero;stroke:none"
         d="m 194.293,356.871 c -88.102,0 -150.2266,32.277 -194.293,70.07 l 39.3242,51.098 c 42.4961,-35.41 88.8988,-60.578 157.3358,-60.578 65.297,0 107.762,28.309 107.762,84.16 0,51.109 -25.969,77.109 -114.836,101.449 -112.5079,30.68 -170.6915,62.961 -170.6915,158.899 0,77.121 55.8516,146.363 174.6255,146.363 76.285,0 126.625,-25.184 167.519,-60.602 l -37.758,-53.468 c -40.894,33.039 -77.847,53.468 -135.269,53.468 -59.02,0 -95.1761,-30.671 -95.1761,-75.511 0,-57.449 32.2501,-77.11 114.8401,-99.078 C 320.945,644 377.563,604.68 377.563,511.859 c 0,-103.82 -83.36,-154.988 -183.27,-154.988" /><path
         id="path28"
         style="fill:#6f7277;fill-opacity:1;fill-rule:nonzero;stroke:none"
         d="m 631.098,700.609 c -72.371,0 -108.532,-59.75 -108.532,-144.668 0,-85.769 36.161,-146.359 109.332,-146.359 72.344,0 107.766,60.59 107.766,144.746 0,86.531 -35.422,146.281 -108.566,146.281 z m 0.8,-343.738 c -114.066,0 -184.843,84.988 -184.843,198.231 0,114.07 70.004,199 184.043,199 114.074,0 184.078,-84.93 184.078,-199 0,-113.243 -69.238,-198.231 -183.278,-198.231" /><path
         id="path30"
         style="fill:#6f7277;fill-opacity:1;fill-rule:nonzero;stroke:none"
         d="M 985.281,363.98 H 909.77 V 913 h 75.511 V 363.98" /><path
         id="path32"
         style="fill:#6f7277;fill-opacity:1;fill-rule:nonzero;stroke:none"
         d="m 1428.24,363.98 h -66.06 l -5.51,50.34 c -40.93,-36.191 -79.45,-55.851 -133.74,-55.851 -85.72,0 -125.05,53.48 -125.05,136.113 v 250.867 h 75.51 V 510.262 c 0,-63.66 25.17,-93.571 78.66,-93.571 36.95,0 66.86,15.688 100.68,44.071 v 284.687 h 75.51 V 363.98" /><path
         id="path34"
         style="fill:#6f7277;fill-opacity:1;fill-rule:nonzero;stroke:none"
         d="m 1744.67,368.719 c -23.6,-7.879 -43.26,-11.02 -71.57,-11.02 -76.28,0 -111.7,33.051 -111.7,104.59 V 694.34 h -62.93 v 51.109 h 64.5 l 18.89,124.313 h 53.48 V 745.449 h 108.57 V 694.34 H 1635.34 V 463.891 c 0,-32.27 14.96,-50.34 51.14,-50.34 24.37,0 40.9,2.379 58.19,8.64 v -53.472" /><path
         id="path36"
         style="fill:#6f7277;fill-opacity:1;fill-rule:nonzero;stroke:none"
         d="m 1915.52,363.98 h -75.51 v 381.469 h 75.51 z m 1.6,456.211 h -79.45 v 75.52 h 79.45 v -75.52" /><path
         id="path38"
         style="fill:#6f7277;fill-opacity:1;fill-rule:nonzero;stroke:none"
         d="m 2192.52,700.609 c -72.37,0 -108.52,-59.75 -108.52,-144.668 0,-85.769 36.15,-146.359 109.32,-146.359 72.35,0 107.77,60.59 107.77,144.746 0,86.531 -35.42,146.281 -108.57,146.281 z m 0.8,-343.738 c -114.06,0 -184.83,84.988 -184.83,198.231 0,114.07 70,199 184.03,199 114.08,0 184.09,-84.93 184.09,-199 0,-113.243 -69.24,-198.231 -183.29,-198.231" /><path
         id="path40"
         style="fill:#6f7277;fill-opacity:1;fill-rule:nonzero;stroke:none"
         d="m 2794.52,363.98 h -75.51 v 235.95 c 0,63.73 -25.98,92.871 -79.45,92.871 -37,0 -66.07,-14.981 -100.69,-44.063 V 363.98 h -75.52 v 381.469 h 66.87 l 5.51,-50.34 c 40.09,36.192 78.65,56.68 133.7,56.68 85.73,0 125.09,-53.48 125.09,-136.867 V 363.98" /><path
         id="path42"
         style="fill:#6f7277;fill-opacity:1;fill-rule:nonzero;stroke:none"
         d="m 3031.5,358.469 c -66.07,0 -119.55,22.043 -162.04,53.48 l 34.62,45.61 c 33.81,-25.18 79.44,-46.379 130.58,-46.379 58.2,0 84.93,20.441 84.93,56.621 0,36.187 -25.17,50.34 -90.44,62.961 -97.53,18.07 -143.17,46.379 -143.17,112.468 0,64.489 50.34,108.559 145.52,108.559 63.72,0 104.62,-14.988 143.17,-42.519 l -32.24,-47.141 c -33.85,23.562 -69.24,36.953 -114.08,36.953 -51.14,0 -75.5,-17.301 -75.5,-48.812 0,-32.981 22.8,-44.829 94.4,-58.981 86.49,-17.301 140.01,-42.457 140.01,-116.379 0,-76.351 -63.73,-116.441 -155.76,-116.441" /></g></g></svg>
